<svg width="512" height="512" viewBox="0 0 512 512" fill="none" xmlns="http://www.w3.org/2000/svg">
<path d="M66.002 404.177C79.4637 419.384 95.8854 431.685 114.263 440.33C114.263 440.33 163.753 462.475 230.984 437.087C240.506 433.427 249.499 428.517 257.726 422.487C262.302 418.95 266.545 415.004 270.403 410.697C261.607 409.696 210.387 403.039 178.456 357.987C159.873 331.813 156.55 304.889 155.844 292.11C114.098 318.245 82.4308 357.745 66.002 404.177ZM464.176 335.034C455.809 333.211 447.144 333.247 438.793 335.141C430.442 337.034 422.609 340.739 415.847 345.993C406.595 309.578 386.897 293.419 379.295 287.956C366.778 278.978 352.257 274.301 339.239 270.022C326.886 265.994 314.207 263.043 301.345 261.203C310.276 271.869 317.47 283.878 322.659 296.787C340.206 340.564 328.235 379.858 325.822 387.301C317.327 413.265 301.114 436.02 279.348 452.529C274.705 456.034 243.604 478.816 199.85 479.316C181.701 479.544 163.698 476.059 146.945 469.075C146.945 469.166 190.552 491.72 247.2 491.777C327.188 491.857 383.449 447.021 392.097 439.932C438.47 401.901 457.178 355.722 464.131 335.034H464.176ZM49.9908 21.7407C31.2498 25.4148 13.9238 34.2967 0 47.3677C11.4488 48.4402 22.4579 52.3131 32.0565 58.6449C40.0521 63.992 46.8554 70.9348 52.0392 79.0373C70.0571 59.9497 90.6841 43.5064 113.307 30.1958C93.645 20.6924 71.4578 17.7296 49.9908 21.7407ZM41.752 366.544C19.2339 322.521 11.4854 272.419 19.6527 223.65C27.2236 179.849 47.1317 139.117 77.0403 106.235C88.5514 93.6618 101.434 82.417 115.447 72.7102C149.126 49.5019 188.332 35.587 229.107 32.3693C250.253 30.6618 271.534 31.9761 292.309 36.2725C341.663 47.0149 377.224 73.7571 394.612 92.0328C403.326 101.465 411.343 111.517 418.601 122.109C431.562 142.342 434.122 147.497 443.636 172.18C450.748 190.66 461.912 212.008 479.766 216.424C490.714 219.166 509.353 216.993 511.777 232.526C514.884 252.088 484.705 263.023 470.105 264.617C456.825 266.062 444.387 263.24 431.801 259.428C414.254 254.125 396.945 248.048 379.512 242.358C375.46 241.038 371.405 239.729 367.347 238.432C347.091 231.957 324.309 225.664 293.447 223.32C256.577 220.532 229.334 225.528 219.684 227.519C182.195 235.21 146.94 251.307 116.573 274.597C84.7535 298.951 59.1237 330.464 41.7633 366.578L41.752 366.544ZM380.001 189.511C379.687 191.4 379.94 193.34 380.729 195.086C381.518 196.831 382.806 198.304 384.432 199.317C386.057 200.33 387.946 200.838 389.861 200.777C391.775 200.717 393.629 200.09 395.187 198.976C396.745 197.862 397.937 196.311 398.614 194.519C399.29 192.727 399.42 190.775 398.987 188.909C398.554 187.043 397.578 185.348 396.181 184.037C394.785 182.726 393.031 181.859 391.142 181.545C389.887 181.337 388.604 181.377 387.365 181.665C386.126 181.952 384.956 182.481 383.921 183.221C382.887 183.96 382.008 184.897 381.336 185.976C380.663 187.055 380.209 188.256 380.001 189.511Z" fill="url(#paint0_linear_7715_51664)"/>
<defs>
<linearGradient id="paint0_linear_7715_51664" x1="-6.29013" y1="54.9737" x2="424.272" y2="407.511" gradientUnits="userSpaceOnUse">
<stop stop-color="#347CFF"/>
<stop offset="0.32" stop-color="#3D8DD8"/>
<stop offset="0.71" stop-color="#1AC1E6"/>
<stop offset="1" stop-color="#0FDAB5"/>
</linearGradient>
</defs>
</svg>
