<svg width="138" height="139" viewBox="0 0 138 139" fill="none" xmlns="http://www.w3.org/2000/svg">
    <rect x="1" y="1.88501" width="28" height="56.23" fill="#287EFF" stroke="white"/>
    <rect x="57.23" y="1.88501" width="28" height="56.23" transform="rotate(90 57.23 1.88501)" fill="#287EFF" stroke="white"/>
    <line x1="30" y1="30.385" x2="30" y2="1.38501" stroke="white"/>
    <path fill-rule="evenodd" clip-rule="evenodd" d="M67.5 137.385C106.16 137.385 137.5 106.717 137.5 68.885C137.5 31.0535 106.16 0.38501 67.5 0.38501V31.4341C68.1626 31.4015 68.8294 31.385 69.5 31.385C91.5914 31.385 109.5 49.2936 109.5 71.385C109.5 93.4764 91.5914 111.385 69.5 111.385C68.8294 111.385 68.1626 111.368 67.5 111.336V137.385ZM57.73 81.385V110.385H29.5V138.615H0.50002L0.5 110.385L0.500001 81.385H29.5H57.73Z" fill="black"/>
    </svg>
    