<svg width="320" height="320" viewBox="0 0 320 320" fill="none" xmlns="http://www.w3.org/2000/svg">
<circle cx="160" cy="160" r="160" fill="#D8D8D8"/>
<mask id="mask0_1_4" style="mask-type:luminance" maskUnits="userSpaceOnUse" x="0" y="0" width="320" height="320">
<circle cx="160" cy="160" r="160" fill="white"/>
</mask>
<g mask="url(#mask0_1_4)">
<rect width="320" height="320" rx="71.1111" fill="#D8D8D8"/>
<mask id="mask1_1_4" style="mask-type:luminance" maskUnits="userSpaceOnUse" x="0" y="0" width="320" height="320">
<rect width="320" height="320" rx="71.1111" fill="white"/>
</mask>
<g mask="url(#mask1_1_4)">
<rect x="-17.7778" y="-3.49951" width="120.758" height="480" transform="rotate(-45 -17.7778 -3.49951)" fill="#FF9F37"/>
<rect x="-80" y="65.7162" width="92.9366" height="480" transform="rotate(-45 -80 65.7162)" fill="#F7E243"/>
<rect x="62.2222" y="-83.4969" width="133.333" height="480" transform="rotate(-45 62.2222 -83.4969)" fill="#FE4859"/>
<rect x="-177.778" y="156.503" width="133.333" height="480" transform="rotate(-45 -177.778 156.503)" fill="#3EC93F"/>
</g>
<path fill-rule="evenodd" clip-rule="evenodd" d="M87.4878 160V120.555C87.4878 120.555 91.3954 43.4304 111.554 36.2443C112.455 35.9225 114.387 34.8747 116.415 36.236C120.349 38.8761 124.632 50.5422 122.455 93.9969" fill="white"/>
<path d="M87.4878 160V120.555C87.4878 120.555 91.3954 43.4304 111.554 36.2443C112.455 35.9225 114.387 34.8747 116.415 36.236C120.349 38.8761 124.632 50.5422 122.455 93.9969" stroke="#0F1245" stroke-width="12.8"/>
<path fill-rule="evenodd" clip-rule="evenodd" d="M87.4878 199.471V158.857C87.4878 126.367 103.311 110.121 119.133 93.8762C134.956 77.6309 141.206 36.3678 157.266 35.5555C167.63 37.5862 166.365 74.6255 166.523 88.6777C166.602 91.8455 168.105 95.5007 171.191 95.9068C183.216 97.5314 201.412 104.923 221.982 134.489C229.023 144.562 258.137 150.735 268.659 149.679C271.507 149.354 273.96 151.466 274.118 154.39C274.672 167.142 269.45 199.471 221.982 199.471C150.344 199.471 150.779 248.207 150.779 248.207V302.222C113.358 284.027 87.4878 244.795 87.4878 199.471" fill="white"/>
<path fill-rule="evenodd" clip-rule="evenodd" d="M87.4878 199.471V158.857C87.4878 126.367 103.311 110.121 119.133 93.8762C134.956 77.6309 141.206 36.3678 157.266 35.5555C167.63 37.5862 166.365 74.6255 166.523 88.6777C166.602 91.8455 168.105 95.5007 171.191 95.9068C183.216 97.5314 201.412 104.923 221.982 134.489C229.023 144.562 258.137 150.735 268.659 149.679C271.507 149.354 273.96 151.466 274.118 154.39C274.672 167.142 269.45 199.471 221.982 199.471C150.344 199.471 150.779 248.207 150.779 248.207V302.222C113.358 284.027 87.4878 244.795 87.4878 199.471Z" stroke="#0F1245" stroke-width="12.8" stroke-linecap="round" stroke-linejoin="round"/>
<path fill-rule="evenodd" clip-rule="evenodd" d="M189.71 135.556C189.71 129.422 184.732 124.445 178.599 124.445C172.466 124.445 167.488 129.422 167.488 135.556C167.488 141.689 172.466 146.667 178.599 146.667C184.732 146.667 189.71 141.689 189.71 135.556Z" fill="#0F1245"/>
</g>
</svg>
