<svg width="128" height="128" viewBox="0 0 128 128" fill="none" xmlns="http://www.w3.org/2000/svg">
<path d="M0 64C0 28.6538 28.6538 0 64 0C99.3462 0 128 28.6538 128 64C128 99.3462 99.3462 128 64 128C28.6538 128 0 99.3462 0 64Z" fill="white"/>
<path fill-rule="evenodd" clip-rule="evenodd" d="M104.653 32.8706C96.8075 25.2046 86.0755 20.48 74.24 20.48C50.2046 20.48 30.72 39.9646 30.72 64C30.72 88.0354 50.2046 107.52 74.24 107.52C86.0755 107.52 96.8075 102.795 104.653 95.1294C95.2948 107.332 80.5662 115.2 64 115.2C35.723 115.2 12.8 92.277 12.8 64C12.8 35.723 35.723 12.8 64 12.8C80.5662 12.8 95.2948 20.6678 104.653 32.8706ZM41.7176 88.9035C47.9939 95.0363 56.5796 98.816 66.048 98.816C85.2763 98.816 100.864 83.2283 100.864 64C100.864 44.7717 85.2763 29.184 66.048 29.184C56.5796 29.184 47.9939 32.9636 41.7176 39.0965C49.2041 29.3342 60.987 23.04 74.24 23.04C96.8616 23.04 115.2 41.3784 115.2 64C115.2 86.6216 96.8616 104.96 74.24 104.96C60.987 104.96 49.2041 98.6657 41.7176 88.9035ZM84.48 64C84.48 75.3108 75.3108 84.48 64 84.48C52.6892 84.48 43.52 75.3108 43.52 64C43.52 52.6892 52.6892 43.52 64 43.52C75.3108 43.52 84.48 52.6892 84.48 64ZM94.72 64C94.72 80.9662 80.9662 94.72 64 94.72C47.0338 94.72 33.28 80.9662 33.28 64C33.28 47.0338 47.0338 33.28 64 33.28C80.9662 33.28 94.72 47.0338 94.72 64Z" fill="url(#paint0_linear_6776_43113)"/>
<defs>
<linearGradient id="paint0_linear_6776_43113" x1="12.8" y1="62.2345" x2="115.2" y2="62.2345" gradientUnits="userSpaceOnUse">
<stop stop-color="#00E0FF"/>
<stop offset="1" stop-color="#562EC8"/>
</linearGradient>
</defs>
</svg>